<?xml version="1.0" encoding="utf-8"?>
<!-- Generator: Adobe Illustrator 27.1.0, SVG Export Plug-In . SVG Version: 6.00 Build 0)  -->
<svg version="1.1" id="Layer_1" xmlns="http://www.w3.org/2000/svg" xmlns:xlink="http://www.w3.org/1999/xlink" x="0px" y="0px"
	 viewBox="0 0 80 80" style="enable-background:new 0 0 80 80;" xml:space="preserve">
<style type="text/css">
	.st0{fill:none;stroke:#fff;stroke-width:2;stroke-linecap:round;stroke-linejoin:round;stroke-miterlimit:10;}
	.st1{fill:none;stroke:#101010;stroke-width:1.5;stroke-linecap:round;stroke-linejoin:round;stroke-miterlimit:10;}
	.left_all {fill:none;stroke:none;stroke-width:2;stroke-linecap:round;stroke-linejoin:round;stroke-miterlimit:10; 
		animation: opacity 2.25s linear 1.25s infinite;
		
	}
	.right_all {fill:none;stroke:none;stroke-width:2;stroke-linecap:round;stroke-linejoin:round;stroke-miterlimit:10; 
		animation: opacity 2.25s linear 1.25s infinite;	
		
	}	
	.left_all2 {fill:none;stroke:#A68164;stroke-width:2;stroke-linecap:round;stroke-linejoin:round;stroke-miterlimit:10;		
		stroke-dasharray: 50; 
		stroke-dashoffset: 50;
		animation: line 2.25s linear 1.25s infinite;
		
	}
	.right_all2 {fill:none;stroke:#A68164;stroke-width:2;stroke-linecap:round;stroke-linejoin:round;stroke-miterlimit:10;		
		stroke-dasharray: 50; 
		stroke-dashoffset: 50;
		animation: line 2.25s linear 1.25s infinite;
		
	}
	@keyframes line {
		0% { stroke-dashoffset: 50; }
		100% { stroke-dashoffset: 0; }
	}
	@keyframes opacity {
		0% { opacity:0;  }
		78% { opacity:1; fill:#A68164; }
		100% { opacity:1; fill:#A68164; }
	}
</style>
<g>
	<g>
		<line class="st0" x1="44.55" y1="21.34" x2="44.55" y2="75.54"/>
		<line class="st0" x1="34.58" y1="21.34" x2="34.58" y2="75.54"/>
		<polyline class="st0" points="28.42,33.48 6.72,33.48 6.72,21.34 28.42,21.34 		"/>
		<path class="st1" d="M28.42,38.73"/>
		<polyline class="st0" points="28.42,75.54 9.31,75.54 9.31,38.73 		"/>
		<polyline class="st0" points="50.71,75.54 69.82,75.54 69.82,38.73 		"/>
		<polyline class="st0" points="50.71,33.48 72.41,33.48 72.41,21.34 50.71,21.34 		"/>
		<path class="left_all" d="M 28.87,4.46 c-2.74,2.74-4.43,6.52-4.43,10.7 h15.16L28.87,4.46z"/>	
		<path class="right_all" d="M54.69,15.16 c0-4.18-1.69-7.96-4.43-10.7 l-10.7,10.7H54.69z"/>	
		<path class="left_all2" d="M 28.87,4.46 c-2.74,2.74-4.43,6.52-4.43,10.7 h15.16L28.87,4.46z"/>	
		<path class="right_all2" d="M54.69,15.16 c0-4.18-1.69-7.96-4.43-10.7 l-10.7,10.7H54.69z"/>	
	</g>
</g>
</svg>
